<svg id="svg" version="1.1" xmlns="http://www.w3.org/2000/svg" xmlns:xlink="http://www.w3.org/1999/xlink" width="400" height="88.35451734799038" viewBox="0, 0, 400,88.35451734799038"><g id="svgg"><path id="path0" d="M58.250 6.004 C 29.721 9.191,13.886 40.022,28.016 64.871 C 31.132 70.349,36.869 76.347,41.042 78.488 C 41.294 78.617,41.500 78.785,41.500 78.861 C 41.500 78.938,41.607 79.000,41.738 79.000 C 41.869 79.000,42.080 79.104,42.207 79.231 C 42.453 79.477,43.694 80.146,43.833 80.108 C 43.879 80.095,44.153 80.253,44.442 80.459 C 44.732 80.665,45.021 80.833,45.087 80.833 C 45.152 80.833,45.766 81.096,46.451 81.417 C 47.136 81.737,47.787 82.000,47.898 82.000 C 48.009 82.000,48.171 82.069,48.258 82.153 C 48.345 82.238,49.467 82.606,50.750 82.972 C 52.799 83.557,53.740 83.785,55.345 84.088 C 55.568 84.130,55.938 84.203,56.167 84.251 C 58.307 84.697,66.001 84.696,68.333 84.249 C 68.774 84.165,69.314 84.059,70.000 83.923 C 70.229 83.877,70.604 83.806,70.833 83.765 C 72.262 83.506,76.705 82.049,78.250 81.333 C 80.245 80.408,80.651 80.195,82.301 79.208 C 83.259 78.635,84.102 78.167,84.174 78.167 C 84.246 78.167,84.331 78.103,84.361 78.025 C 84.392 77.947,84.717 77.682,85.083 77.437 C 96.248 69.961,103.185 54.870,101.585 41.542 C 101.238 38.655,101.168 38.214,100.744 36.306 C 100.528 35.329,100.234 34.251,100.092 33.911 C 99.950 33.571,99.833 33.185,99.833 33.054 C 99.833 32.923,99.694 32.500,99.523 32.116 C 99.353 31.731,98.997 30.854,98.733 30.167 C 98.252 28.916,95.945 24.420,95.654 24.167 C 95.601 24.121,95.238 23.608,94.847 23.028 C 86.951 11.314,72.189 4.447,58.250 6.004 M68.167 11.140 C 97.188 16.367,106.960 52.845,84.417 71.799 C 62.468 90.252,28.653 75.064,27.713 46.329 C 27.000 24.529,46.814 7.294,68.167 11.140 M120.583 18.165 C 110.823 19.608,104.939 27.266,106.497 36.500 C 107.583 42.940,112.123 46.630,122.500 49.506 C 129.696 51.500,131.987 53.394,130.551 56.163 C 129.427 58.329,123.685 58.821,120.033 57.064 C 118.191 56.179,115.333 53.131,115.333 52.054 C 115.333 51.838,114.780 51.333,114.542 51.333 C 114.364 51.333,113.421 51.858,109.000 54.418 C 107.763 55.135,106.225 56.018,105.583 56.382 C 104.164 57.186,104.292 57.068,104.292 57.576 C 104.292 58.857,106.458 62.326,108.568 64.422 C 111.700 67.534,114.343 68.840,119.917 70.029 C 121.707 70.411,127.742 70.308,129.812 69.860 C 139.088 67.851,144.190 61.530,143.320 53.126 C 142.565 45.825,139.267 42.787,128.073 39.079 C 119.928 36.380,118.629 35.514,118.876 32.943 C 119.076 30.871,121.903 29.747,125.300 30.390 C 127.671 30.838,129.618 32.349,130.865 34.707 C 131.593 36.083,131.775 36.096,133.798 34.906 C 134.688 34.382,136.204 33.490,137.167 32.922 C 138.129 32.355,139.529 31.537,140.278 31.104 C 142.418 29.868,142.408 29.965,140.665 27.211 C 136.462 20.568,128.520 16.991,120.583 18.165 M273.750 18.097 C 268.109 18.879,264.622 20.158,260.955 22.790 C 257.188 25.493,252.892 31.181,251.858 34.833 C 251.767 35.154,251.542 35.942,251.358 36.583 C 250.076 41.054,250.076 47.279,251.358 51.750 C 251.542 52.392,251.767 53.179,251.858 53.500 C 252.570 56.018,255.356 60.328,257.933 62.902 C 263.002 67.964,268.818 70.253,276.583 70.243 C 279.825 70.239,280.335 70.185,283.000 69.563 C 288.792 68.211,294.027 64.668,297.474 59.765 C 298.728 57.981,299.296 58.465,289.197 52.710 C 287.896 51.969,287.633 51.999,287.036 52.958 C 283.806 58.149,275.273 59.718,269.085 56.257 C 260.786 51.616,260.825 36.695,269.148 32.041 C 275.268 28.619,283.847 30.217,287.039 35.375 C 287.632 36.334,287.896 36.364,289.197 35.623 C 299.505 29.749,298.812 30.401,297.138 28.139 C 292.448 21.803,285.341 18.222,277.167 18.079 C 275.563 18.050,274.025 18.058,273.750 18.097 M126.761 18.845 C 131.537 19.510,136.007 22.067,138.991 25.842 C 139.810 26.877,141.371 29.473,141.299 29.681 C 141.272 29.760,139.150 31.055,136.584 32.558 L 131.919 35.290 131.414 34.399 C 129.598 31.196,127.439 29.833,123.973 29.701 C 117.513 29.454,115.891 34.710,121.591 37.415 C 122.838 38.007,124.167 38.474,129.402 40.161 C 132.943 41.301,136.249 42.840,138.032 44.176 C 142.939 47.853,144.286 56.082,140.949 61.987 C 135.793 71.110,118.197 72.509,109.448 64.492 C 107.703 62.892,104.833 58.629,104.833 57.635 C 104.833 57.533,113.879 52.260,114.333 52.098 C 114.511 52.034,114.791 52.385,115.306 53.318 C 117.236 56.820,120.101 58.485,124.448 58.631 C 129.106 58.787,131.508 57.467,131.496 54.756 C 131.485 52.116,129.657 50.936,122.314 48.828 C 111.075 45.601,106.936 41.523,106.924 33.667 C 106.909 23.773,115.585 17.291,126.761 18.845 M280.113 18.844 C 286.815 19.758,293.257 23.566,296.797 28.707 L 297.677 29.986 297.297 30.225 C 297.088 30.357,295.904 31.047,294.667 31.759 C 293.429 32.471,291.704 33.467,290.833 33.973 C 289.962 34.478,288.954 35.062,288.592 35.269 L 287.934 35.647 287.692 35.282 C 285.083 31.359,281.756 29.742,276.333 29.760 C 271.385 29.776,268.118 31.178,265.425 34.443 C 261.249 39.506,261.249 48.827,265.425 53.890 C 270.864 60.484,283.160 60.234,287.468 53.441 L 287.943 52.691 288.597 53.066 C 288.956 53.272,290.262 54.028,291.500 54.747 C 292.737 55.466,294.462 56.462,295.333 56.960 C 297.893 58.426,297.716 58.267,297.384 58.796 C 290.385 69.968,273.633 73.175,262.093 65.551 C 254.934 60.821,251.098 53.361,251.098 44.167 C 251.098 28.028,264.119 16.664,280.113 18.844 M49.699 24.669 C 40.461 25.955,36.558 35.733,42.871 41.774 C 45.215 44.017,48.168 45.155,52.750 45.583 C 60.731 46.329,64.509 54.222,59.243 59.148 C 53.770 64.268,44.184 61.443,43.354 54.466 C 42.987 51.388,39.805 50.471,38.638 53.109 C 37.045 56.711,41.748 63.313,47.159 65.070 C 59.249 68.996,70.619 58.645,65.333 48.526 C 64.742 47.395,64.721 47.309,65.055 47.398 C 65.254 47.452,69.070 47.496,73.535 47.498 L 81.654 47.500 81.702 54.971 L 81.750 62.442 82.159 63.038 C 83.280 64.673,85.524 64.559,86.423 62.822 C 86.857 61.982,86.779 35.661,86.337 33.933 C 83.945 24.577,69.973 21.341,62.265 28.357 L 61.447 29.102 60.768 28.365 C 58.193 25.572,53.785 24.100,49.699 24.669 M74.750 28.917 C 77.440 29.482,79.894 31.312,81.017 33.591 L 81.583 34.741 81.636 38.871 L 81.688 43.000 72.511 43.000 L 63.333 43.000 63.334 39.708 C 63.336 34.618,63.658 33.478,65.654 31.496 C 68.017 29.149,71.352 28.204,74.750 28.917 M53.583 29.199 C 55.411 29.651,57.176 31.085,57.928 32.729 C 58.389 33.735,58.434 34.383,58.374 39.191 L 58.333 42.465 56.859 41.991 C 56.049 41.730,54.305 41.362,52.984 41.172 C 47.117 40.331,44.917 38.602,44.917 34.833 C 44.917 30.719,49.000 28.064,53.583 29.199 M161.129 32.270 C 146.721 34.882,141.664 54.961,152.730 65.623 C 158.478 71.161,167.614 71.978,173.367 67.468 L 173.984 66.984 174.034 68.117 L 174.083 69.250 179.750 69.294 C 184.929 69.334,185.435 69.314,185.625 69.054 C 185.898 68.682,185.933 33.830,185.661 33.322 C 185.496 33.014,185.256 33.000,180.008 33.000 C 173.520 33.000,174.000 32.897,174.000 34.289 L 174.000 35.376 173.458 34.939 C 170.503 32.554,165.517 31.474,161.129 32.270 M209.893 32.246 C 207.802 32.626,206.020 33.382,204.708 34.447 L 204.000 35.022 204.000 34.211 C 204.000 32.948,204.256 33.000,198.056 33.000 C 192.745 33.000,192.504 33.014,192.339 33.322 C 192.223 33.539,192.167 39.407,192.167 51.167 C 192.167 62.926,192.223 68.795,192.339 69.011 C 192.581 69.464,203.726 69.520,203.899 69.070 C 203.954 68.925,204.001 64.106,204.002 58.361 C 204.005 45.925,204.017 45.822,205.663 44.209 C 207.623 42.288,211.106 42.665,212.522 44.952 C 213.223 46.086,213.231 46.213,213.325 57.917 L 213.417 69.250 219.083 69.294 C 224.263 69.334,224.768 69.314,224.958 69.054 C 225.120 68.833,225.167 66.353,225.168 58.010 C 225.171 45.638,225.137 45.956,226.610 44.326 C 228.135 42.637,231.397 42.563,233.014 44.181 C 234.333 45.500,234.333 45.505,234.333 57.984 C 234.333 66.278,234.382 68.982,234.533 69.133 C 234.875 69.475,245.933 69.414,246.066 69.070 C 246.247 68.595,246.177 46.416,245.989 44.722 C 245.497 40.312,243.657 36.933,240.414 34.484 C 235.607 30.853,226.905 31.290,222.779 35.369 C 221.988 36.151,222.173 36.191,220.826 34.944 C 218.178 32.492,214.092 31.484,209.893 32.246 M166.964 32.839 C 169.548 33.258,171.771 34.282,173.598 35.892 L 174.500 36.688 174.500 35.177 L 174.500 33.667 179.833 33.667 L 185.167 33.667 185.167 51.252 L 185.167 68.838 179.875 68.794 L 174.583 68.750 174.535 67.200 L 174.487 65.650 173.469 66.571 C 168.197 71.342,158.746 70.653,153.067 65.083 C 140.387 52.646,150.103 30.103,166.964 32.839 M216.744 33.231 C 218.460 33.822,220.156 34.959,221.137 36.176 C 222.072 37.337,221.968 37.315,222.583 36.480 C 226.372 31.340,236.864 31.345,241.717 36.490 C 245.270 40.256,245.500 41.504,245.500 56.985 L 245.500 68.759 240.292 68.753 L 235.083 68.746 234.999 57.581 C 234.903 45.023,234.950 45.475,233.589 43.885 C 231.493 41.437,226.826 42.108,225.296 45.079 C 224.597 46.437,224.595 46.461,224.505 57.750 L 224.417 68.750 219.167 68.750 L 213.917 68.750 213.833 57.417 L 213.750 46.083 213.319 45.166 C 211.451 41.182,205.898 41.442,203.962 45.603 L 203.583 46.417 203.500 57.583 L 203.417 68.750 198.125 68.794 L 192.833 68.838 192.833 51.252 L 192.833 33.667 198.167 33.667 L 203.500 33.667 203.500 35.082 L 203.500 36.498 204.480 35.533 C 207.172 32.882,212.713 31.842,216.744 33.231 M302.347 33.234 C 302.202 33.408,302.166 36.631,302.204 45.942 L 302.256 58.417 302.712 60.047 C 304.092 64.979,306.931 68.095,311.452 69.641 C 315.584 71.054,321.441 70.235,324.501 67.817 L 325.333 67.159 325.333 67.982 C 325.333 69.449,324.835 69.333,331.151 69.333 C 335.297 69.333,336.819 69.281,336.967 69.133 C 337.257 68.843,337.257 33.490,336.967 33.200 C 336.666 32.900,325.778 32.915,325.528 33.216 C 325.406 33.363,325.334 36.832,325.300 44.174 L 325.250 54.917 324.869 55.858 C 323.091 60.257,316.393 60.579,314.442 56.358 C 314.089 55.596,314.082 55.399,314.000 44.500 C 313.954 38.404,313.856 33.323,313.782 33.208 C 313.572 32.884,302.617 32.909,302.347 33.234 M340.367 33.200 C 339.956 33.611,339.831 33.408,345.227 41.051 C 346.120 42.317,347.204 43.859,347.634 44.477 C 348.795 46.145,350.479 48.530,351.365 49.762 L 352.147 50.849 351.128 52.300 C 350.568 53.097,349.084 55.212,347.830 57.000 C 346.576 58.788,344.702 61.450,343.666 62.917 C 339.615 68.653,339.632 68.625,339.830 68.994 C 340.008 69.326,340.146 69.333,346.402 69.333 L 352.792 69.333 353.944 67.708 C 354.578 66.815,355.956 64.866,357.007 63.378 C 358.057 61.891,358.954 60.675,359.000 60.678 C 359.046 60.680,359.571 61.394,360.167 62.265 C 360.762 63.136,362.116 65.064,363.175 66.549 L 365.101 69.250 371.547 69.294 L 377.993 69.337 378.095 68.928 C 378.206 68.486,378.397 68.778,372.749 60.750 C 368.731 55.038,368.169 54.240,367.368 53.101 C 366.974 52.541,366.464 51.811,366.234 51.478 L 365.815 50.872 367.374 48.644 C 368.232 47.419,369.301 45.892,369.750 45.250 C 370.199 44.608,371.058 43.394,371.658 42.551 C 372.259 41.708,373.313 40.214,374.000 39.232 C 374.688 38.250,375.831 36.623,376.542 35.616 C 378.528 32.801,378.939 33.000,371.132 33.000 L 364.831 33.000 364.472 33.412 C 364.275 33.639,363.844 34.221,363.514 34.704 C 363.184 35.188,362.359 36.371,361.681 37.333 C 361.003 38.296,360.117 39.554,359.713 40.129 L 358.978 41.174 358.031 39.840 C 357.510 39.106,356.371 37.482,355.500 36.231 C 354.629 34.980,353.741 33.742,353.527 33.479 L 353.137 33.000 346.852 33.000 C 342.186 33.000,340.515 33.052,340.367 33.200 M313.369 44.542 L 313.417 55.417 313.817 56.412 C 315.693 61.070,323.160 61.152,325.217 56.537 C 325.922 54.955,326.000 53.646,326.000 43.321 L 326.000 33.667 331.250 33.667 L 336.500 33.667 336.500 51.250 L 336.500 68.833 331.250 68.833 L 326.000 68.833 326.000 67.186 L 326.000 65.539 324.930 66.588 C 319.660 71.756,309.209 70.393,305.089 64.000 C 302.858 60.539,302.676 59.045,302.670 44.125 L 302.667 33.667 307.994 33.667 L 313.322 33.667 313.369 44.542 M355.923 37.915 C 358.289 41.281,358.951 42.120,359.114 41.956 C 359.226 41.843,360.585 39.950,362.133 37.750 L 364.948 33.750 371.055 33.706 L 377.161 33.663 374.138 37.956 C 372.475 40.318,369.832 44.069,368.266 46.293 C 366.699 48.517,365.333 50.467,365.231 50.626 C 365.074 50.872,366.013 52.288,371.273 59.746 C 374.698 64.602,377.500 68.633,377.500 68.704 C 377.500 68.775,374.805 68.833,371.511 68.833 L 365.522 68.833 362.333 64.292 C 360.579 61.794,359.082 59.728,359.007 59.700 C 358.931 59.673,357.459 61.661,355.735 64.117 C 354.011 66.574,352.522 68.638,352.425 68.706 C 352.137 68.907,340.500 68.861,340.500 68.658 C 340.500 68.562,343.282 64.532,346.682 59.703 C 352.258 51.785,352.845 50.889,352.659 50.586 C 352.444 50.236,348.567 44.705,343.835 38.000 C 342.314 35.846,341.013 33.990,340.942 33.875 C 340.840 33.710,342.069 33.667,346.876 33.667 L 352.938 33.667 355.923 37.915 M163.962 42.926 C 159.438 44.023,156.939 48.786,158.247 53.823 C 160.312 61.777,172.625 61.555,174.314 53.533 C 175.773 46.606,170.609 41.315,163.962 42.926 M169.375 43.816 C 175.074 46.043,175.610 55.275,170.206 58.127 C 168.034 59.274,164.752 59.338,162.603 58.276 C 156.423 55.221,157.520 44.819,164.167 43.448 C 165.271 43.220,168.420 43.443,169.375 43.816 " stroke="none" fill="#09b6e2" fill-rule="evenodd"></path><path id="path1" d="M58.834 10.836 C 31.476 13.705,18.154 45.855,35.518 67.105 C 51.494 86.657,82.511 82.915,93.414 60.121 C 104.966 35.971,85.378 8.052,58.834 10.836 M120.113 18.920 C 112.268 20.238,107.276 25.618,107.049 33.000 C 106.800 41.122,110.866 45.508,121.417 48.498 C 129.574 50.809,131.500 52.004,131.500 54.750 C 131.500 57.114,130.035 58.259,126.459 58.694 C 121.361 59.312,116.650 56.841,114.815 52.583 C 114.696 52.308,114.586 52.061,114.569 52.034 C 114.553 52.006,113.799 52.410,112.895 52.930 C 110.891 54.082,104.933 57.537,104.875 57.580 C 104.741 57.680,106.711 61.256,107.371 62.110 C 111.113 66.959,116.320 69.369,123.583 69.614 C 135.780 70.026,143.788 63.079,142.657 53.070 C 141.885 46.243,138.274 42.952,128.058 39.764 C 119.985 37.245,118.167 36.062,118.167 33.332 C 118.167 31.298,119.656 29.994,122.386 29.637 C 126.112 29.151,129.578 30.898,131.302 34.133 C 131.605 34.702,131.888 35.167,131.932 35.167 C 132.004 35.167,141.169 29.860,141.312 29.736 C 141.438 29.626,139.730 26.892,138.826 25.757 C 134.540 20.377,127.263 17.718,120.113 18.920 M272.667 18.912 C 257.692 21.119,248.404 34.820,251.592 50.000 C 255.236 67.355,275.863 75.384,290.926 65.311 C 293.466 63.613,297.532 59.327,297.494 58.389 C 297.489 58.262,288.711 53.127,288.155 52.926 C 288.003 52.871,287.710 53.144,287.346 53.681 C 283.947 58.698,275.628 60.297,269.357 57.141 C 259.815 52.338,259.815 35.995,269.357 31.193 C 275.643 28.029,284.112 29.670,287.359 34.682 C 287.723 35.244,287.977 35.481,288.145 35.416 C 288.777 35.174,297.489 30.066,297.494 29.935 C 297.509 29.548,295.414 26.966,293.906 25.513 C 288.446 20.255,280.441 17.766,272.667 18.912 M54.283 24.762 C 56.818 25.286,58.609 26.239,60.451 28.045 L 61.485 29.059 62.284 28.314 C 69.422 21.660,82.678 24.121,86.007 32.718 C 86.819 34.813,86.854 35.567,86.800 49.500 L 86.750 62.417 86.358 63.047 C 85.285 64.772,83.072 64.698,82.044 62.901 C 81.675 62.254,81.672 62.199,81.669 54.875 L 81.667 47.500 73.265 47.500 L 64.862 47.500 65.348 48.375 C 68.515 54.087,65.835 61.349,59.417 64.442 C 50.447 68.765,38.915 63.452,38.381 54.750 C 38.122 50.528,42.803 50.342,43.425 54.550 C 44.792 63.796,59.827 64.128,61.519 54.950 C 62.420 50.058,58.385 46.209,51.616 45.505 C 45.451 44.863,40.997 41.576,39.938 36.884 C 38.265 29.478,45.896 23.030,54.283 24.762 M71.124 28.830 C 68.628 29.158,66.039 30.694,64.722 32.627 C 63.603 34.271,63.500 34.826,63.500 39.197 L 63.500 43.000 72.596 43.000 L 81.693 43.000 81.638 38.949 L 81.583 34.898 80.959 33.635 C 79.288 30.256,75.260 28.288,71.124 28.830 M49.474 29.221 C 44.909 30.512,43.314 35.917,46.634 38.845 C 48.114 40.149,49.471 40.639,52.833 41.079 C 54.417 41.286,56.147 41.685,58.042 42.281 C 58.435 42.404,58.487 34.564,58.101 33.281 C 57.184 30.235,52.945 28.240,49.474 29.221 M161.417 32.898 C 147.141 35.274,142.335 55.850,153.752 65.720 C 159.616 70.790,168.566 71.047,173.712 66.292 C 174.183 65.856,174.590 65.500,174.618 65.500 C 174.645 65.500,174.667 66.212,174.667 67.083 L 174.667 68.667 179.917 68.667 L 185.167 68.667 185.167 51.167 L 185.167 33.667 179.917 33.667 L 174.667 33.667 174.667 35.327 L 174.667 36.988 173.893 36.235 C 170.995 33.420,166.120 32.115,161.417 32.898 M210.256 32.841 C 207.887 33.213,205.995 34.137,204.460 35.672 L 203.333 36.799 203.333 35.233 L 203.333 33.667 198.083 33.667 L 192.833 33.667 192.833 51.167 L 192.833 68.667 198.077 68.667 L 203.320 68.667 203.372 57.792 L 203.424 46.917 203.810 45.877 C 205.415 41.552,211.560 41.036,213.347 45.076 C 213.933 46.400,213.997 47.711,213.999 58.292 L 214.000 68.667 219.245 68.667 L 224.491 68.667 224.537 57.625 C 224.583 46.600,224.584 46.582,224.960 45.653 C 226.706 41.338,232.969 41.191,234.597 45.428 C 234.894 46.201,234.916 46.925,234.962 57.458 L 235.011 68.667 240.265 68.667 L 245.518 68.667 245.453 56.458 C 245.397 45.934,245.351 44.101,245.119 43.167 C 243.410 36.282,239.008 32.768,232.083 32.763 C 228.007 32.760,225.546 33.640,223.207 35.935 L 221.998 37.122 220.624 35.754 C 218.093 33.236,214.381 32.193,210.256 32.841 M302.834 45.375 C 302.834 60.760,303.052 61.998,306.411 65.647 C 311.077 70.717,320.359 71.090,325.042 66.396 L 326.000 65.435 326.000 67.051 L 326.000 68.667 331.250 68.667 L 336.500 68.667 336.500 51.167 L 336.500 33.667 331.250 33.667 L 326.000 33.667 325.999 43.625 C 325.997 54.356,325.949 55.111,325.154 56.777 C 323.319 60.621,317.146 61.149,314.452 57.692 C 313.347 56.276,313.333 56.109,313.333 44.316 L 313.333 33.667 308.083 33.667 L 302.833 33.667 302.834 45.375 M341.005 33.792 C 341.008 33.860,343.340 37.217,346.187 41.250 C 349.035 45.283,351.721 49.108,352.156 49.750 L 352.947 50.917 350.591 54.250 C 346.676 59.789,340.739 68.236,340.606 68.458 C 340.506 68.623,341.723 68.667,346.474 68.667 L 352.468 68.667 355.685 64.083 C 357.454 61.563,358.942 59.504,358.992 59.509 C 359.042 59.514,360.509 61.558,362.251 64.051 L 365.419 68.583 371.466 68.627 L 377.513 68.671 376.598 67.377 C 376.095 66.666,374.602 64.546,373.281 62.667 C 366.899 53.589,365.923 52.202,365.468 51.566 L 364.978 50.882 370.710 42.733 C 373.862 38.250,376.576 34.377,376.740 34.125 L 377.038 33.667 371.051 33.667 L 365.063 33.667 362.015 38.001 L 358.967 42.335 355.942 38.007 L 352.917 33.679 346.958 33.673 C 343.681 33.670,341.002 33.723,341.005 33.792 M169.649 43.221 C 176.367 46.009,176.294 56.545,169.537 59.185 C 167.473 59.992,164.049 59.794,162.007 58.750 C 156.460 55.913,156.439 46.626,161.973 43.614 C 163.970 42.527,167.537 42.344,169.649 43.221 " stroke="none" fill="#fbfcfc" fill-rule="evenodd"></path><path id="path2" d="M34.167 17.417 C 33.762 17.829,33.468 18.167,33.514 18.167 C 33.560 18.167,33.928 17.829,34.333 17.417 C 34.738 17.004,35.032 16.667,34.986 16.667 C 34.940 16.667,34.572 17.004,34.167 17.417 M276.294 29.618 C 276.501 29.658,276.801 29.656,276.960 29.615 C 277.120 29.573,276.950 29.540,276.583 29.542 C 276.217 29.544,276.086 29.578,276.294 29.618 M63.404 39.667 C 63.404 41.546,63.428 42.315,63.458 41.375 C 63.487 40.435,63.487 38.898,63.458 37.958 C 63.428 37.019,63.404 37.787,63.404 39.667 M124.627 58.785 C 124.834 58.824,125.134 58.823,125.294 58.781 C 125.453 58.739,125.283 58.707,124.917 58.709 C 124.550 58.711,124.420 58.745,124.627 58.785 M276.294 58.785 C 276.501 58.824,276.801 58.823,276.960 58.781 C 277.120 58.739,276.950 58.707,276.583 58.709 C 276.217 58.711,276.086 58.745,276.294 58.785 " stroke="none" fill="#9ad6f3" fill-rule="evenodd"></path><path id="path3" d="M174.561 35.250 C 174.561 36.167,174.589 36.520,174.623 36.036 C 174.657 35.552,174.656 34.802,174.622 34.369 C 174.588 33.937,174.560 34.333,174.561 35.250 M203.394 35.250 C 203.395 36.167,203.423 36.520,203.456 36.036 C 203.490 35.552,203.490 34.802,203.456 34.369 C 203.421 33.937,203.394 34.333,203.394 35.250 M302.745 44.500 C 302.745 50.504,302.766 52.960,302.792 49.958 C 302.817 46.956,302.817 42.044,302.792 39.042 C 302.766 36.040,302.745 38.496,302.745 44.500 M39.705 34.833 C 39.705 35.154,39.740 35.285,39.782 35.125 C 39.823 34.965,39.823 34.702,39.782 34.542 C 39.740 34.381,39.705 34.512,39.705 34.833 M58.379 35.333 C 58.379 35.746,58.411 35.915,58.451 35.708 C 58.491 35.502,58.491 35.165,58.451 34.958 C 58.411 34.752,58.379 34.921,58.379 35.333 M203.374 58.289 L 203.333 68.662 198.042 68.708 L 192.750 68.755 198.047 68.794 C 202.160 68.825,203.362 68.787,203.423 68.625 C 203.467 68.510,203.483 63.804,203.459 58.167 L 203.414 47.917 203.374 58.289 M174.574 67.125 L 174.583 68.750 179.833 68.754 L 185.083 68.757 179.881 68.710 L 174.679 68.662 174.621 67.081 L 174.564 65.499 174.574 67.125 M216.542 68.791 C 217.985 68.819,220.348 68.819,221.792 68.791 C 223.235 68.764,222.054 68.741,219.167 68.741 C 216.279 68.741,215.098 68.764,216.542 68.791 M244.128 68.787 C 244.428 68.825,244.878 68.824,245.128 68.786 C 245.378 68.748,245.133 68.717,244.583 68.718 C 244.033 68.719,243.828 68.750,244.128 68.787 M328.635 68.791 C 330.131 68.819,332.531 68.819,333.969 68.791 C 335.407 68.764,334.183 68.741,331.250 68.741 C 328.317 68.741,327.140 68.764,328.635 68.791 M343.469 68.791 C 345.148 68.819,347.848 68.819,349.469 68.791 C 351.090 68.764,349.717 68.742,346.417 68.742 C 343.117 68.742,341.790 68.764,343.469 68.791 M368.458 68.791 C 370.131 68.819,372.869 68.819,374.542 68.791 C 376.215 68.764,374.846 68.742,371.500 68.742 C 368.154 68.742,366.785 68.764,368.458 68.791 " stroke="none" fill="#5ac7ea" fill-rule="evenodd"></path><path id="path4" d="M106.885 33.583 C 106.886 34.133,106.917 34.338,106.954 34.039 C 106.991 33.739,106.990 33.289,106.952 33.039 C 106.914 32.788,106.884 33.033,106.885 33.583 M86.746 48.917 C 86.746 56.158,86.767 59.097,86.792 55.446 C 86.817 51.795,86.817 45.870,86.792 42.279 C 86.767 38.688,86.746 41.675,86.746 48.917 M213.912 58.083 C 213.912 63.950,213.933 66.326,213.958 63.363 C 213.984 60.400,213.984 55.600,213.958 52.696 C 213.933 49.792,213.912 52.217,213.912 58.083 M52.208 61.782 C 52.369 61.823,52.631 61.823,52.792 61.782 C 52.952 61.740,52.821 61.705,52.500 61.705 C 52.179 61.705,52.048 61.740,52.208 61.782 " stroke="none" fill="#cbe9fa" fill-rule="evenodd"></path></g></svg>